<?xml version="1.0" encoding="UTF-8" standalone="no"?>
<svg
   xmlns:dc="http://purl.org/dc/elements/1.1/"
   xmlns:cc="http://creativecommons.org/ns#"
   xmlns:rdf="http://www.w3.org/1999/02/22-rdf-syntax-ns#"
   xmlns:svg="http://www.w3.org/2000/svg"
   xmlns="http://www.w3.org/2000/svg"
   xmlns:sodipodi="http://sodipodi.sourceforge.net/DTD/sodipodi-0.dtd"
   xmlns:inkscape="http://www.inkscape.org/namespaces/inkscape"
   sodipodi:docname="coderkin_logo.svg"
   inkscape:version="1.0 (4035a4fb49, 2020-05-01)"
   id="svg1009"
   version="1.1"
   viewBox="0 0 56.385882 33.376396"
   height="126.147"
   width="213.112">
  <defs
     id="defs1003" />
  <sodipodi:namedview
     inkscape:window-maximized="0"
     inkscape:window-y="27"
     inkscape:window-x="50"
     inkscape:window-height="1016"
     inkscape:window-width="1404"
     units="px"
     showgrid="false"
     inkscape:document-rotation="0"
     inkscape:current-layer="layer1"
     inkscape:document-units="mm"
     inkscape:cy="55.413136"
     inkscape:cx="66.597206"
     inkscape:zoom="2.8"
     inkscape:pageshadow="2"
     inkscape:pageopacity="1"
     borderopacity="1.0"
     bordercolor="#666666"
     pagecolor="#a3a3a3"
     id="base" />
  <metadata
     id="metadata1006">
    <rdf:RDF>
      <cc:Work
         rdf:about="">
        <dc:format>image/svg+xml</dc:format>
        <dc:type
           rdf:resource="http://purl.org/dc/dcmitype/StillImage" />
        <dc:title></dc:title>
      </cc:Work>
    </rdf:RDF>
  </metadata>
  <g
     id="layer1"
     inkscape:groupmode="layer"
     inkscape:label="Layer 1">
    <g
       style="font-style:normal;font-variant:normal;font-weight:bold;font-stretch:normal;font-size:31.469px;line-height:1.25;font-family:Montserrat;-inkscape-font-specification:'Montserrat Bold';fill:#006cb3;fill-opacity:1;stroke-width:1.18009"
       id="g2882"
       transform="matrix(1.3928276,0,0,1.3928187,2315.3473,1054.3501)">
      <path
         id="path2887"
         d="m -1649.8185,-733.61737 c -2.2448,0 -4.2798,-0.48252 -6.105,-1.44757 -1.8042,-0.98603 -3.2308,-2.33919 -4.2798,-4.0595 -1.0279,-1.74129 -1.5419,-3.70286 -1.5419,-5.88471 0,-2.18185 0.514,-4.13292 1.5419,-5.85323 1.049,-1.74129 2.4756,-3.09445 4.2798,-4.0595 1.8252,-0.98603 3.8707,-1.47904 6.1365,-1.47904 1.9091,0 3.6294,0.33567 5.1609,1.007 1.5525,0.67134 2.8532,1.63639 3.9021,2.89515 l -3.2727,3.02103 c -1.4895,-1.72031 -3.3357,-2.58046 -5.5386,-2.58046 -1.3637,0 -2.5805,0.3042 -3.6504,0.9126 -1.0699,0.58742 -1.9091,1.4161 -2.5175,2.48605 -0.5874,1.06995 -0.8811,2.28675 -0.8811,3.6504 0,1.36366 0.2937,2.58046 0.8811,3.65041 0.6084,1.06995 1.4476,1.90912 2.5175,2.51752 1.0699,0.58742 2.2867,0.88113 3.6504,0.88113 2.2029,0 4.0491,-0.87064 5.5386,-2.61193 l 3.2727,3.02103 c -1.0489,1.27974 -2.3496,2.25528 -3.9021,2.92661 -1.5525,0.67134 -3.2833,1.00701 -5.1924,1.00701 z"
         style="color:#000000;font-style:normal;font-variant:normal;font-weight:bold;font-stretch:normal;font-size:medium;line-height:1.25;font-family:Montserrat;-inkscape-font-specification:'Montserrat Bold';font-variant-ligatures:normal;font-variant-position:normal;font-variant-caps:normal;font-variant-numeric:normal;font-variant-alternates:normal;font-variant-east-asian:normal;font-feature-settings:normal;font-variation-settings:normal;text-indent:0;text-align:start;text-decoration:none;text-decoration-line:none;text-decoration-style:solid;text-decoration-color:#000000;letter-spacing:normal;word-spacing:normal;text-transform:none;writing-mode:lr-tb;direction:ltr;text-orientation:mixed;dominant-baseline:auto;baseline-shift:baseline;text-anchor:start;white-space:normal;shape-padding:0;shape-margin:0;inline-size:0;clip-rule:nonzero;display:inline;overflow:visible;visibility:visible;isolation:auto;mix-blend-mode:normal;color-interpolation:sRGB;color-interpolation-filters:linearRGB;solid-color:#000000;solid-opacity:1;vector-effect:none;fill:#006cb3;fill-opacity:1;fill-rule:nonzero;stroke:none;stroke-width:1.18009;stroke-linecap:butt;stroke-linejoin:miter;stroke-miterlimit:4;stroke-dasharray:none;stroke-dashoffset:0;stroke-opacity:1;color-rendering:auto;image-rendering:auto;shape-rendering:auto;text-rendering:auto;enable-background:accumulate;stop-color:#000000;stop-opacity:1" />
      <path
         id="path2889"
         d="m -1649.7871,-756.99023 c -2.3514,0 -4.501,0.51427 -6.416,1.54882 -1.8918,1.01219 -3.4049,2.44776 -4.5059,4.27539 v 0.002 c -1.0843,1.81459 -1.6269,3.87979 -1.6269,6.15429 0,2.27452 0.5422,4.35136 1.625,6.18555 v 0.004 0.004 c 1.1012,1.80591 2.6113,3.23733 4.5,4.26953 v 0.002 0.002 c 1.9135,1.01177 4.0515,1.51563 6.3808,1.51563 1.9783,0 3.7925,-0.34838 5.4258,-1.05469 1.6334,-0.70633 3.0177,-1.74471 4.125,-3.0957 l 0.3535,-0.42969 -4.1328,-3.81446 -0.3984,0.4668 c -1.3961,1.63211 -3.0425,2.4043 -5.0899,2.4043 -1.2782,0 -2.3883,-0.27265 -3.3652,-0.8086 -0.978,-0.55778 -1.73,-1.31026 -2.2871,-2.28906 -0.5346,-0.97598 -0.8066,-2.08466 -0.8066,-3.36133 0,-1.27665 0.272,-2.38339 0.8066,-3.35937 0.5577,-0.97983 1.3072,-1.72283 2.2852,-2.25977 v -0.002 -0.002 c 0.9763,-0.55516 2.0834,-0.83594 3.3593,-0.83594 2.0493,0 3.6965,0.76546 5.0918,2.37695 l 0.3985,0.46094 4.1328,-3.81445 -0.3594,-0.43164 c -1.1066,-1.328 -2.4876,-2.35125 -4.1172,-3.05664 -1.614,-0.70753 -3.4201,-1.05664 -5.3984,-1.05664 z m 0,1.17968 c 1.84,0 3.4749,0.3219 4.9238,0.95703 v 0 0.002 c 1.2924,0.55887 2.3552,1.36226 3.2735,2.34375 l -2.4551,2.26758 c -1.515,-1.51851 -3.3514,-2.40821 -5.4942,-2.40821 -1.4482,0 -2.7718,0.32757 -3.9336,0.98633 -8e-4,4.5e-4 0,0.002 0,0.002 -1.1599,0.63739 -2.0876,1.55099 -2.7461,2.70899 v 0.004 0.004 c -0.6383,1.16264 -0.9531,2.48522 -0.9531,3.93359 0,1.44839 0.3148,2.77291 0.9531,3.93555 v 0.004 0.004 c 0.6581,1.15737 1.5829,2.08017 2.7402,2.73829 v 0.002 0.002 c 1.1627,0.63832 2.4853,0.95508 3.9336,0.95508 2.1451,0 3.9833,-0.90018 5.4981,-2.4375 l 2.4551,2.26758 c -0.9193,0.99959 -1.9842,1.81382 -3.2774,2.37304 -1.4716,0.63637 -3.119,0.95899 -4.959,0.95899 -2.157,0 -4.0874,-0.45938 -5.8222,-1.375 v -0.002 c -1.7177,-0.93927 -3.0585,-2.21293 -4.0547,-3.84571 -5e-4,-8e-4 0,-10e-4 0,-0.002 -0.9701,-1.64647 -1.4551,-3.49213 -1.4551,-5.57813 0,-2.08851 0.4861,-3.92319 1.457,-5.54882 v -0.002 c 0.9967,-1.65382 2.3372,-2.92418 4.0528,-3.84179 v 0 c 1.7354,-0.9375 3.6753,-1.40821 5.8555,-1.40821 z"
         style="color:#000000;font-style:normal;font-variant:normal;font-weight:bold;font-stretch:normal;font-size:medium;line-height:1.25;font-family:Montserrat;-inkscape-font-specification:'Montserrat Bold';font-variant-ligatures:normal;font-variant-position:normal;font-variant-caps:normal;font-variant-numeric:normal;font-variant-alternates:normal;font-variant-east-asian:normal;font-feature-settings:normal;font-variation-settings:normal;text-indent:0;text-align:start;text-decoration:none;text-decoration-line:none;text-decoration-style:solid;text-decoration-color:#000000;letter-spacing:normal;word-spacing:normal;text-transform:none;writing-mode:lr-tb;direction:ltr;text-orientation:mixed;dominant-baseline:auto;baseline-shift:baseline;text-anchor:start;white-space:normal;shape-padding:0;shape-margin:0;inline-size:0;clip-rule:nonzero;display:inline;overflow:visible;visibility:visible;isolation:auto;mix-blend-mode:normal;color-interpolation:sRGB;color-interpolation-filters:linearRGB;solid-color:#000000;solid-opacity:1;vector-effect:none;fill:#006cb3;fill-opacity:1;fill-rule:nonzero;stroke:none;stroke-width:1.18009;stroke-linecap:butt;stroke-linejoin:miter;stroke-miterlimit:4;stroke-dasharray:none;stroke-dashoffset:0;stroke-opacity:1;color-rendering:auto;image-rendering:auto;shape-rendering:auto;text-rendering:auto;enable-background:accumulate;stop-color:#000000;stop-opacity:1" />
    </g>
    <g
       style="font-style:normal;font-variant:normal;font-weight:bold;font-stretch:normal;font-size:31.469px;line-height:1.25;font-family:Montserrat;-inkscape-font-specification:'Montserrat Bold';fill:#006cb3;fill-opacity:1;stroke:none;stroke-width:1.18009;stroke-opacity:1"
       id="g2891"
       transform="matrix(0.58496941,0,0,0.58496567,969.99617,452.49268)">
      <path
         id="path2893"
         d="m -1627.0979,-733.61737 c -2.2867,0 -4.3532,-0.49301 -6.1994,-1.47904 -1.8252,-0.98603 -3.2623,-2.33919 -4.3113,-4.0595 -1.0279,-1.74129 -1.5419,-3.69237 -1.5419,-5.85324 0,-2.16087 0.514,-4.10145 1.5419,-5.82176 1.049,-1.74129 2.4861,-3.10494 4.3113,-4.09097 1.8462,-0.98603 3.9127,-1.47904 6.1994,-1.47904 2.2867,0 4.3427,0.49301 6.1679,1.47904 1.8252,0.98603 3.2623,2.34968 4.3113,4.09097 1.0489,1.72031 1.5734,3.66089 1.5734,5.82176 0,2.16087 -0.5245,4.11195 -1.5734,5.85324 -1.049,1.72031 -2.4861,3.07347 -4.3113,4.0595 -1.8252,0.98603 -3.8812,1.47904 -6.1679,1.47904 z m 0,-4.34272 c 1.3007,0 2.4756,-0.29371 3.5245,-0.88113 1.049,-0.6084 1.8672,-1.44757 2.4546,-2.51752 0.6084,-1.06995 0.9126,-2.28675 0.9126,-3.65041 0,-1.36365 -0.3042,-2.58045 -0.9126,-3.6504 -0.5874,-1.06995 -1.4056,-1.89863 -2.4546,-2.48605 -1.0489,-0.6084 -2.2238,-0.9126 -3.5245,-0.9126 -1.3007,0 -2.4756,0.3042 -3.5246,0.9126 -1.0489,0.58742 -1.8776,1.4161 -2.486,2.48605 -0.5874,1.06995 -0.8811,2.28675 -0.8811,3.6504 0,1.36366 0.2937,2.58046 0.8811,3.65041 0.6084,1.06995 1.4371,1.90912 2.486,2.51752 1.049,0.58742 2.2239,0.88113 3.5246,0.88113 z"
         style="color:#000000;font-style:normal;font-variant:normal;font-weight:bold;font-stretch:normal;font-size:medium;line-height:1.25;font-family:Montserrat;-inkscape-font-specification:'Montserrat Bold';font-variant-ligatures:normal;font-variant-position:normal;font-variant-caps:normal;font-variant-numeric:normal;font-variant-alternates:normal;font-variant-east-asian:normal;font-feature-settings:normal;font-variation-settings:normal;text-indent:0;text-align:start;text-decoration:none;text-decoration-line:none;text-decoration-style:solid;text-decoration-color:#000000;letter-spacing:normal;word-spacing:normal;text-transform:none;writing-mode:lr-tb;direction:ltr;text-orientation:mixed;dominant-baseline:auto;baseline-shift:baseline;text-anchor:start;white-space:normal;shape-padding:0;shape-margin:0;inline-size:0;clip-rule:nonzero;display:inline;overflow:visible;visibility:visible;isolation:auto;mix-blend-mode:normal;color-interpolation:sRGB;color-interpolation-filters:linearRGB;solid-color:#000000;solid-opacity:1;vector-effect:none;fill:#006cb3;fill-opacity:1;fill-rule:nonzero;stroke:none;stroke-width:1.18009;stroke-linecap:butt;stroke-linejoin:miter;stroke-miterlimit:4;stroke-dasharray:none;stroke-dashoffset:0;stroke-opacity:1;color-rendering:auto;image-rendering:auto;shape-rendering:auto;text-rendering:auto;enable-background:accumulate;stop-color:#000000;stop-opacity:1" />
      <path
         id="path2895"
         d="m -1627.0977,-756.99023 c -2.3715,0 -4.543,0.51511 -6.4785,1.54882 v 0 c -1.9114,1.0326 -3.4335,2.47796 -4.5352,4.30664 v 0 0.002 c -1.0838,1.81368 -1.625,3.86862 -1.625,6.12304 0,2.25444 0.5408,4.321 1.623,6.1543 v 0.004 0.002 c 1.1021,1.8074 2.6253,3.23972 4.5352,4.27149 v 0.002 c 1.9355,1.03372 4.107,1.54883 6.4785,1.54883 2.3716,0 4.5314,-0.51578 6.4473,-1.55078 1.9099,-1.03177 3.4331,-2.46409 4.5352,-4.27149 v 0 -0.002 c 1.1046,-1.8337 1.6582,-3.90186 1.6582,-6.15821 0,-2.25478 -0.5536,-4.31185 -1.6582,-6.125 -1.1016,-1.82868 -2.6257,-3.27404 -4.5371,-4.30664 -1.9159,-1.035 -4.0757,-1.54882 -6.4473,-1.54882 z m 0,1.17968 c 2.202,0 4.1522,0.47116 5.8868,1.40821 1.739,0.93945 3.0896,2.22111 4.0859,3.875 v 0.002 0.002 c 0.9917,1.62655 1.4882,3.44828 1.4882,5.51367 0,2.0654 -0.4969,3.89996 -1.4902,5.54883 -0.9958,1.63207 -2.3463,2.90588 -4.0859,3.84571 -1.7346,0.93704 -3.6848,1.4082 -5.8868,1.4082 -2.201,0 -4.1635,-0.47066 -5.9199,-1.4082 v -0.002 c -1.7363,-0.93852 -3.0852,-2.20953 -4.0801,-3.83789 v -0.002 c -0.973,-1.64887 -1.4609,-3.48608 -1.4609,-5.55274 0,-2.0673 0.4868,-3.89065 1.4589,-5.51757 v 0 c 0.9961,-1.65343 2.3457,-2.93562 4.084,-3.875 1.7569,-0.93834 3.7199,-1.40821 5.9218,-1.40821 z m 0,3.16211 c -1.3905,0 -2.6752,0.33081 -3.8144,0.99024 -1.1386,0.63822 -2.052,1.55158 -2.709,2.70703 v 0.004 0.004 c -0.6383,1.16264 -0.9551,2.48522 -0.9551,3.93359 0,1.44839 0.3168,2.77291 0.9551,3.93555 v 0.004 0.004 c 0.6567,1.15484 1.5672,2.07745 2.7031,2.73633 v 0.002 0.002 c 1.1398,0.63822 2.423,0.95703 3.8125,0.95703 1.3896,0 2.6729,-0.31881 3.8125,-0.95703 v -0.002 -0.002 c 1.1367,-0.65927 2.0379,-1.58485 2.6738,-2.74219 0.6596,-1.16229 0.9883,-2.48832 0.9883,-3.9375 0,-1.44825 -0.3276,-2.77183 -0.9864,-3.93359 v -0.002 c -0.6363,-1.15792 -1.5404,-2.07431 -2.6797,-2.71289 -1.1392,-0.65944 -2.4239,-0.99024 -3.8145,-0.99024 z m 0,1.17969 c 1.2088,0 2.2712,0.27869 3.2286,0.83398 v 0.002 0.002 c 0.9567,0.53574 1.6866,1.27587 2.2246,2.25586 v 0.004 0.004 c 0.5552,0.97632 0.834,2.08152 0.834,3.35742 0,1.27591 -0.2788,2.38307 -0.834,3.35938 v 0.004 0.004 c -0.5384,0.98057 -1.2712,1.73214 -2.2305,2.28906 -0.9568,0.53464 -2.0208,0.80274 -3.2305,0.80274 -1.2096,0 -2.2735,-0.26809 -3.2304,-0.80274 -0.9599,-0.5573 -1.7062,-1.31193 -2.2657,-2.29492 -0.5346,-0.97598 -0.8066,-2.08466 -0.8066,-3.36133 0,-1.27665 0.272,-2.38339 0.8066,-3.35937 0.5592,-0.98236 1.3025,-1.72562 2.2598,-2.26172 v -0.002 -0.002 c 0.9575,-0.55529 2.0198,-0.83398 3.2285,-0.83398 z"
         style="color:#000000;font-style:normal;font-variant:normal;font-weight:bold;font-stretch:normal;font-size:medium;line-height:1.25;font-family:Montserrat;-inkscape-font-specification:'Montserrat Bold';font-variant-ligatures:normal;font-variant-position:normal;font-variant-caps:normal;font-variant-numeric:normal;font-variant-alternates:normal;font-variant-east-asian:normal;font-feature-settings:normal;font-variation-settings:normal;text-indent:0;text-align:start;text-decoration:none;text-decoration-line:none;text-decoration-style:solid;text-decoration-color:#000000;letter-spacing:normal;word-spacing:normal;text-transform:none;writing-mode:lr-tb;direction:ltr;text-orientation:mixed;dominant-baseline:auto;baseline-shift:baseline;text-anchor:start;white-space:normal;shape-padding:0;shape-margin:0;inline-size:0;clip-rule:nonzero;display:inline;overflow:visible;visibility:visible;isolation:auto;mix-blend-mode:normal;color-interpolation:sRGB;color-interpolation-filters:linearRGB;solid-color:#000000;solid-opacity:1;vector-effect:none;fill:#006cb3;fill-opacity:1;fill-rule:nonzero;stroke:none;stroke-width:1.18009;stroke-linecap:butt;stroke-linejoin:miter;stroke-miterlimit:4;stroke-dasharray:none;stroke-dashoffset:0;stroke-opacity:1;color-rendering:auto;image-rendering:auto;shape-rendering:auto;text-rendering:auto;enable-background:accumulate;stop-color:#000000;stop-opacity:1" />
    </g>
    <g
       style="font-style:normal;font-variant:normal;font-weight:bold;font-stretch:normal;font-size:31.469px;line-height:1.25;font-family:Montserrat;-inkscape-font-specification:'Montserrat Bold';fill:#000000;fill-opacity:1;stroke-width:1.18009"
       id="g2897"
       transform="matrix(-0.41884002,0,0,-0.41883734,-652.38456,-295.34938)">
      <path
         id="path2899"
         d="m -1611.2061,-756.0233 h 10.0072 c 2.3916,0 4.5,0.46155 6.3252,1.38464 1.8462,0.90211 3.2728,2.18185 4.2798,3.83922 1.028,1.65737 1.542,3.58746 1.542,5.79029 0,2.20283 -0.514,4.13293 -1.542,5.7903 -1.007,1.65737 -2.4336,2.9476 -4.2798,3.87069 -1.8252,0.90211 -3.9336,1.35316 -6.3252,1.35316 h -10.0072 z m 9.7554,17.84293 c 2.2029,0 3.9546,-0.6084 5.2553,-1.8252 1.3217,-1.23779 1.9826,-2.90565 1.9826,-5.00358 0,-2.09793 -0.6609,-3.7553 -1.9826,-4.9721 -1.3007,-1.23778 -3.0524,-1.85667 -5.2553,-1.85667 h -4.6574 v 13.65755 z"
         style="color:#000000;font-style:normal;font-variant:normal;font-weight:bold;font-stretch:normal;font-size:medium;line-height:1.25;font-family:Montserrat;-inkscape-font-specification:'Montserrat Bold';font-variant-ligatures:normal;font-variant-position:normal;font-variant-caps:normal;font-variant-numeric:normal;font-variant-alternates:normal;font-variant-east-asian:normal;font-feature-settings:normal;font-variation-settings:normal;text-indent:0;text-align:start;text-decoration:none;text-decoration-line:none;text-decoration-style:solid;text-decoration-color:#000000;letter-spacing:normal;word-spacing:normal;text-transform:none;writing-mode:lr-tb;direction:ltr;text-orientation:mixed;dominant-baseline:auto;baseline-shift:baseline;text-anchor:start;white-space:normal;shape-padding:0;shape-margin:0;inline-size:0;clip-rule:nonzero;display:inline;overflow:visible;visibility:visible;isolation:auto;mix-blend-mode:normal;color-interpolation:sRGB;color-interpolation-filters:linearRGB;solid-color:#000000;solid-opacity:1;vector-effect:none;fill:#000000;fill-opacity:1;fill-rule:nonzero;stroke:none;stroke-width:1.18009;stroke-linecap:butt;stroke-linejoin:miter;stroke-miterlimit:4;stroke-dasharray:none;stroke-dashoffset:0;stroke-opacity:1;color-rendering:auto;image-rendering:auto;shape-rendering:auto;text-rendering:auto;enable-background:accumulate;stop-color:#000000;stop-opacity:1" />
      <path
         id="path2901"
         d="m -1611.7969,-756.61328 v 0.58984 22.61914 h 10.5977 c 2.4658,0 4.6709,-0.46659 6.5879,-1.41406 v -0.002 0 c 1.9328,-0.9664 3.4529,-2.33708 4.5176,-4.08789 v -0.004 c 1.0881,-1.75605 1.6289,-3.80465 1.6289,-6.09766 0,-2.29233 -0.5414,-4.33999 -1.6289,-6.0957 -1.0655,-1.75352 -2.5892,-3.11639 -4.5254,-4.0625 -1.9162,-0.96755 -4.1195,-1.44531 -6.584,-1.44531 z m 1.1817,1.17969 h 9.416 c 2.3157,0 4.326,0.44601 6.0586,1.32226 v 0.002 0 c 1.7561,0.85812 3.0866,2.05598 4.0351,3.61719 v 0.002 0.002 c 0.9663,1.55786 1.4531,3.36747 1.4531,5.47851 0,2.11105 -0.4868,3.92261 -1.4531,5.48047 v 0.002 0.002 c -0.9491,1.56216 -2.2808,2.77128 -4.039,3.65039 -1.733,0.85604 -3.7461,1.28906 -6.0625,1.28906 h -9.416 z m 3.9179,3.00586 v 14.83789 h 5.2461 c 2.3115,0 4.2362,-0.65405 5.6582,-1.98438 1.4432,-1.35147 2.17,-3.2137 2.17,-5.43555 0,-2.21807 -0.7249,-4.06768 -2.1661,-5.39843 -1.4211,-1.35246 -3.3487,-2.01953 -5.6621,-2.01953 z m 1.1797,1.17968 h 4.0664 c 2.0924,0 3.6695,0.57026 4.8496,1.69336 v 0.004 0.004 c 1.1974,1.10236 1.793,2.56309 1.793,4.53711 0,1.97402 -0.5966,3.45012 -1.7969,4.57422 -1.1792,1.10252 -2.7581,1.66602 -4.8516,1.66602 h -4.0664 z"
         style="color:#000000;font-style:normal;font-variant:normal;font-weight:bold;font-stretch:normal;font-size:medium;line-height:1.25;font-family:Montserrat;-inkscape-font-specification:'Montserrat Bold';font-variant-ligatures:normal;font-variant-position:normal;font-variant-caps:normal;font-variant-numeric:normal;font-variant-alternates:normal;font-variant-east-asian:normal;font-feature-settings:normal;font-variation-settings:normal;text-indent:0;text-align:start;text-decoration:none;text-decoration-line:none;text-decoration-style:solid;text-decoration-color:#000000;letter-spacing:normal;word-spacing:normal;text-transform:none;writing-mode:lr-tb;direction:ltr;text-orientation:mixed;dominant-baseline:auto;baseline-shift:baseline;text-anchor:start;white-space:normal;shape-padding:0;shape-margin:0;inline-size:0;clip-rule:nonzero;display:inline;overflow:visible;visibility:visible;isolation:auto;mix-blend-mode:normal;color-interpolation:sRGB;color-interpolation-filters:linearRGB;solid-color:#000000;solid-opacity:1;vector-effect:none;fill:#000000;fill-opacity:1;fill-rule:nonzero;stroke:none;stroke-width:1.18009;stroke-linecap:butt;stroke-linejoin:miter;stroke-miterlimit:4;stroke-dasharray:none;stroke-dashoffset:0;stroke-opacity:1;color-rendering:auto;image-rendering:auto;shape-rendering:auto;text-rendering:auto;enable-background:accumulate;stop-color:#000000;stop-opacity:1" />
    </g>
    <g
       style="font-style:normal;font-variant:normal;font-weight:bold;font-stretch:normal;font-size:31.469px;line-height:1.25;font-family:Montserrat;-inkscape-font-specification:'Montserrat Bold';fill:#000000;fill-opacity:1;stroke-width:1.18009"
       id="g2903"
       transform="matrix(0.32349757,0,0,0.32349551,536.7827,257.69514)">
      <path
         id="path2905"
         d="m -1568.1565,-738.08597 v 4.09097 h -17.0562 v -22.0283 h 16.6471 v 4.09097 h -11.5806 v 4.78329 h 10.2274 v 3.9651 h -10.2274 v 5.09797 z"
         style="color:#000000;font-style:normal;font-variant:normal;font-weight:bold;font-stretch:normal;font-size:medium;line-height:1.25;font-family:Montserrat;-inkscape-font-specification:'Montserrat Bold';font-variant-ligatures:normal;font-variant-position:normal;font-variant-caps:normal;font-variant-numeric:normal;font-variant-alternates:normal;font-variant-east-asian:normal;font-feature-settings:normal;font-variation-settings:normal;text-indent:0;text-align:start;text-decoration:none;text-decoration-line:none;text-decoration-style:solid;text-decoration-color:#000000;letter-spacing:normal;word-spacing:normal;text-transform:none;writing-mode:lr-tb;direction:ltr;text-orientation:mixed;dominant-baseline:auto;baseline-shift:baseline;text-anchor:start;white-space:normal;shape-padding:0;shape-margin:0;inline-size:0;clip-rule:nonzero;display:inline;overflow:visible;visibility:visible;isolation:auto;mix-blend-mode:normal;color-interpolation:sRGB;color-interpolation-filters:linearRGB;solid-color:#000000;solid-opacity:1;vector-effect:none;fill:#000000;fill-opacity:1;fill-rule:nonzero;stroke:none;stroke-width:1.18009;stroke-linecap:butt;stroke-linejoin:miter;stroke-miterlimit:4;stroke-dasharray:none;stroke-dashoffset:0;stroke-opacity:1;color-rendering:auto;image-rendering:auto;shape-rendering:auto;text-rendering:auto;enable-background:accumulate;stop-color:#000000;stop-opacity:1" />
      <path
         id="path2907"
         d="m -1585.8027,-756.61328 v 23.20898 h 18.2363 v -5.27148 h -0.5898 -11.4004 v -3.91797 h 10.2285 v -5.14453 h -10.2285 v -3.60352 h 11.582 v -5.27148 z m 1.1797,1.17969 h 15.4668 v 2.91211 h -11.5801 v 5.96289 h 10.2265 v 2.78515 h -10.2265 v 6.27735 h 11.9902 v 2.91015 h -15.8769 z"
         style="color:#000000;font-style:normal;font-variant:normal;font-weight:bold;font-stretch:normal;font-size:medium;line-height:1.25;font-family:Montserrat;-inkscape-font-specification:'Montserrat Bold';font-variant-ligatures:normal;font-variant-position:normal;font-variant-caps:normal;font-variant-numeric:normal;font-variant-alternates:normal;font-variant-east-asian:normal;font-feature-settings:normal;font-variation-settings:normal;text-indent:0;text-align:start;text-decoration:none;text-decoration-line:none;text-decoration-style:solid;text-decoration-color:#000000;letter-spacing:normal;word-spacing:normal;text-transform:none;writing-mode:lr-tb;direction:ltr;text-orientation:mixed;dominant-baseline:auto;baseline-shift:baseline;text-anchor:start;white-space:normal;shape-padding:0;shape-margin:0;inline-size:0;clip-rule:nonzero;display:inline;overflow:visible;visibility:visible;isolation:auto;mix-blend-mode:normal;color-interpolation:sRGB;color-interpolation-filters:linearRGB;solid-color:#000000;solid-opacity:1;vector-effect:none;fill:#000000;fill-opacity:1;fill-rule:nonzero;stroke:none;stroke-width:1.18009;stroke-linecap:butt;stroke-linejoin:miter;stroke-miterlimit:4;stroke-dasharray:none;stroke-dashoffset:0;stroke-opacity:1;color-rendering:auto;image-rendering:auto;shape-rendering:auto;text-rendering:auto;enable-background:accumulate;stop-color:#000000;stop-opacity:1" />
    </g>
    <g
       style="font-style:normal;font-variant:normal;font-weight:bold;font-stretch:normal;font-size:31.469px;line-height:1.25;font-family:Montserrat;-inkscape-font-specification:'Montserrat Bold';fill:#000000;fill-opacity:1;stroke-width:1.18009"
       id="g2909"
       transform="matrix(0.32349757,0,0,0.32349551,536.7827,257.69514)">
      <path
         id="path2911"
         d="m -1550.0619,-733.995 -4.2483,-6.13645 h -0.2518 -4.4371 v 6.13645 h -5.098 v -22.0283 h 9.5351 c 1.9511,0 3.64,0.32518 5.0666,0.97554 1.4475,0.65036 2.5594,1.57345 3.3357,2.76928 0.7762,1.19582 1.1643,2.61192 1.1643,4.24831 0,1.63639 -0.3986,3.05249 -1.1958,4.24832 -0.7762,1.17484 -1.8881,2.07695 -3.3357,2.70633 l 4.9406,7.08052 z m -0.094,-14.03517 c 0,-1.23778 -0.3986,-2.18185 -1.1958,-2.83221 -0.7972,-0.67134 -1.9616,-1.00701 -3.4931,-1.00701 h -4.1539 v 7.67844 h 4.1539 c 1.5315,0 2.6959,-0.33567 3.4931,-1.00701 0.7972,-0.67134 1.1958,-1.61541 1.1958,-2.83221 z"
         style="color:#000000;font-style:normal;font-variant:normal;font-weight:bold;font-stretch:normal;font-size:medium;line-height:1.25;font-family:Montserrat;-inkscape-font-specification:'Montserrat Bold';font-variant-ligatures:normal;font-variant-position:normal;font-variant-caps:normal;font-variant-numeric:normal;font-variant-alternates:normal;font-variant-east-asian:normal;font-feature-settings:normal;font-variation-settings:normal;text-indent:0;text-align:start;text-decoration:none;text-decoration-line:none;text-decoration-style:solid;text-decoration-color:#000000;letter-spacing:normal;word-spacing:normal;text-transform:none;writing-mode:lr-tb;direction:ltr;text-orientation:mixed;dominant-baseline:auto;baseline-shift:baseline;text-anchor:start;white-space:normal;shape-padding:0;shape-margin:0;inline-size:0;clip-rule:nonzero;display:inline;overflow:visible;visibility:visible;isolation:auto;mix-blend-mode:normal;color-interpolation:sRGB;color-interpolation-filters:linearRGB;solid-color:#000000;solid-opacity:1;vector-effect:none;fill:#000000;fill-opacity:1;fill-rule:nonzero;stroke:none;stroke-width:1.18009;stroke-linecap:butt;stroke-linejoin:miter;stroke-miterlimit:4;stroke-dasharray:none;stroke-dashoffset:0;stroke-opacity:1;color-rendering:auto;image-rendering:auto;shape-rendering:auto;text-rendering:auto;enable-background:accumulate;stop-color:#000000;stop-opacity:1" />
      <path
         id="path2913"
         d="m -1564.6875,-756.61328 v 23.20898 h 6.2793 v -6.13672 h 3.7891 l 4.248,6.13672 h 0.3086 6.6074 l -5.2285,-7.49414 c 1.2261,-0.64671 2.2645,-1.47089 2.9824,-2.55664 v -0.002 c 0.8651,-1.29874 1.2929,-2.84102 1.293,-4.57227 0,-1.72968 -0.4147,-3.27139 -1.2579,-4.57031 -0.8401,-1.29418 -2.053,-2.29483 -3.5859,-2.98437 -1.519,-0.69248 -3.2958,-1.0293 -5.3125,-1.0293 z m 1.1797,1.17969 h 8.9453 c 1.8856,0 3.488,0.31363 4.8223,0.92187 v 0.002 0 c 1.3602,0.61112 2.3703,1.45643 3.082,2.55274 0.7093,1.09272 1.0684,2.38464 1.0684,3.92773 0,1.54057 -0.3674,2.82745 -1.0957,3.91992 v 0.002 c -0.7099,1.07451 -1.7183,1.899 -3.0781,2.49023 l -0.6621,0.28711 4.707,6.74414 h -4.0371 l -4.2481,-6.13476 h -0.5605 -5.0273 v 6.13476 h -3.918 z m 3.9199,2.97461 v 8.85742 h 4.7422 c 1.6177,0 2.9354,-0.35327 3.875,-1.14453 0.9315,-0.78448 1.4043,-1.93755 1.4043,-3.28321 0,-1.3628 -0.4732,-2.52082 -1.4102,-3.28711 -0.9393,-0.78858 -2.254,-1.14257 -3.8691,-1.14257 z m 1.1797,1.17968 h 3.5625 c 1.4453,0 2.4585,0.31772 3.1133,0.86914 v 0.002 0.004 c 0.6551,0.53446 0.9785,1.2639 0.9785,2.375 0,1.08794 -0.3235,1.82266 -0.9863,2.38086 -0.6548,0.55142 -1.668,0.86719 -3.1133,0.86719 h -3.5625 z"
         style="color:#000000;font-style:normal;font-variant:normal;font-weight:bold;font-stretch:normal;font-size:medium;line-height:1.25;font-family:Montserrat;-inkscape-font-specification:'Montserrat Bold';font-variant-ligatures:normal;font-variant-position:normal;font-variant-caps:normal;font-variant-numeric:normal;font-variant-alternates:normal;font-variant-east-asian:normal;font-feature-settings:normal;font-variation-settings:normal;text-indent:0;text-align:start;text-decoration:none;text-decoration-line:none;text-decoration-style:solid;text-decoration-color:#000000;letter-spacing:normal;word-spacing:normal;text-transform:none;writing-mode:lr-tb;direction:ltr;text-orientation:mixed;dominant-baseline:auto;baseline-shift:baseline;text-anchor:start;white-space:normal;shape-padding:0;shape-margin:0;inline-size:0;clip-rule:nonzero;display:inline;overflow:visible;visibility:visible;isolation:auto;mix-blend-mode:normal;color-interpolation:sRGB;color-interpolation-filters:linearRGB;solid-color:#000000;solid-opacity:1;vector-effect:none;fill:#000000;fill-opacity:1;fill-rule:nonzero;stroke:none;stroke-width:1.18009;stroke-linecap:butt;stroke-linejoin:miter;stroke-miterlimit:4;stroke-dasharray:none;stroke-dashoffset:0;stroke-opacity:1;color-rendering:auto;image-rendering:auto;shape-rendering:auto;text-rendering:auto;enable-background:accumulate;stop-color:#000000;stop-opacity:1" />
    </g>
    <g
       style="font-style:normal;font-variant:normal;font-weight:bold;font-stretch:normal;font-size:31.469px;line-height:1.25;font-family:Montserrat;-inkscape-font-specification:'Montserrat Bold';fill:#000000;fill-opacity:1;stroke-width:1.18009"
       id="g2915"
       transform="matrix(0.32349757,0,0,0.32349551,537.28589,257.69514)">
      <path
         id="path2917"
         d="m -1532.9428,-742.64897 -2.9581,3.08396 v 5.57001 h -5.0665 v -22.0283 h 5.0665 v 10.29037 l 9.7554,-10.29037 h 5.6644 l -9.126,9.81833 9.661,12.20997 h -5.9476 z"
         style="color:#000000;font-style:normal;font-variant:normal;font-weight:bold;font-stretch:normal;font-size:medium;line-height:1.25;font-family:Montserrat;-inkscape-font-specification:'Montserrat Bold';font-variant-ligatures:normal;font-variant-position:normal;font-variant-caps:normal;font-variant-numeric:normal;font-variant-alternates:normal;font-variant-east-asian:normal;font-feature-settings:normal;font-variation-settings:normal;text-indent:0;text-align:start;text-decoration:none;text-decoration-line:none;text-decoration-style:solid;text-decoration-color:#000000;letter-spacing:normal;word-spacing:normal;text-transform:none;writing-mode:lr-tb;direction:ltr;text-orientation:mixed;dominant-baseline:auto;baseline-shift:baseline;text-anchor:start;white-space:normal;shape-padding:0;shape-margin:0;inline-size:0;clip-rule:nonzero;display:inline;overflow:visible;visibility:visible;isolation:auto;mix-blend-mode:normal;color-interpolation:sRGB;color-interpolation-filters:linearRGB;solid-color:#000000;solid-opacity:1;vector-effect:none;fill:#000000;fill-opacity:1;fill-rule:nonzero;stroke:none;stroke-width:1.18009;stroke-linecap:butt;stroke-linejoin:miter;stroke-miterlimit:4;stroke-dasharray:none;stroke-dashoffset:0;stroke-opacity:1;color-rendering:auto;image-rendering:auto;shape-rendering:auto;text-rendering:auto;enable-background:accumulate;stop-color:#000000;stop-opacity:1" />
      <path
         id="path2919"
         d="m -1541.5566,-756.61328 v 23.20898 h 6.2461 v -5.92382 l 2.332,-2.42969 6.8047,8.35351 h 7.4472 l -10.1035,-12.76953 9.7031,-10.43945 h -7.2714 l -8.9121,9.39844 v -9.39844 z m 1.1796,1.17969 h 3.8868 v 11.18164 l 10.5976,-11.18164 h 4.0567 l -8.5489,9.19726 9.2188,11.65039 h -4.4473 l -7.2929,-8.95312 -0.4629,0.48242 -3.1211,3.25391 v 5.21679 h -3.8868 z"
         style="color:#000000;font-style:normal;font-variant:normal;font-weight:bold;font-stretch:normal;font-size:medium;line-height:1.25;font-family:Montserrat;-inkscape-font-specification:'Montserrat Bold';font-variant-ligatures:normal;font-variant-position:normal;font-variant-caps:normal;font-variant-numeric:normal;font-variant-alternates:normal;font-variant-east-asian:normal;font-feature-settings:normal;font-variation-settings:normal;text-indent:0;text-align:start;text-decoration:none;text-decoration-line:none;text-decoration-style:solid;text-decoration-color:#000000;letter-spacing:normal;word-spacing:normal;text-transform:none;writing-mode:lr-tb;direction:ltr;text-orientation:mixed;dominant-baseline:auto;baseline-shift:baseline;text-anchor:start;white-space:normal;shape-padding:0;shape-margin:0;inline-size:0;clip-rule:nonzero;display:inline;overflow:visible;visibility:visible;isolation:auto;mix-blend-mode:normal;color-interpolation:sRGB;color-interpolation-filters:linearRGB;solid-color:#000000;solid-opacity:1;vector-effect:none;fill:#000000;fill-opacity:1;fill-rule:nonzero;stroke:none;stroke-width:1.18009;stroke-linecap:butt;stroke-linejoin:miter;stroke-miterlimit:4;stroke-dasharray:none;stroke-dashoffset:0;stroke-opacity:1;color-rendering:auto;image-rendering:auto;shape-rendering:auto;text-rendering:auto;enable-background:accumulate;stop-color:#000000;stop-opacity:1" />
    </g>
    <g
       style="font-style:normal;font-variant:normal;font-weight:bold;font-stretch:normal;font-size:31.469px;line-height:1.25;font-family:Montserrat;-inkscape-font-specification:'Montserrat Bold';fill:#000000;fill-opacity:1;stroke-width:1.18009"
       id="g2921"
       transform="matrix(0.32349757,0,0,0.32349551,537.28589,257.69514)">
      <path
         id="path2923"
         d="m -1517.6803,-756.0233 h 5.098 v 22.0283 h -5.098 z"
         style="color:#000000;font-style:normal;font-variant:normal;font-weight:bold;font-stretch:normal;font-size:medium;line-height:1.25;font-family:Montserrat;-inkscape-font-specification:'Montserrat Bold';font-variant-ligatures:normal;font-variant-position:normal;font-variant-caps:normal;font-variant-numeric:normal;font-variant-alternates:normal;font-variant-east-asian:normal;font-feature-settings:normal;font-variation-settings:normal;text-indent:0;text-align:start;text-decoration:none;text-decoration-line:none;text-decoration-style:solid;text-decoration-color:#000000;letter-spacing:normal;word-spacing:normal;text-transform:none;writing-mode:lr-tb;direction:ltr;text-orientation:mixed;dominant-baseline:auto;baseline-shift:baseline;text-anchor:start;white-space:normal;shape-padding:0;shape-margin:0;inline-size:0;clip-rule:nonzero;display:inline;overflow:visible;visibility:visible;isolation:auto;mix-blend-mode:normal;color-interpolation:sRGB;color-interpolation-filters:linearRGB;solid-color:#000000;solid-opacity:1;vector-effect:none;fill:#000000;fill-opacity:1;fill-rule:nonzero;stroke:none;stroke-width:1.18009;stroke-linecap:butt;stroke-linejoin:miter;stroke-miterlimit:4;stroke-dasharray:none;stroke-dashoffset:0;stroke-opacity:1;color-rendering:auto;image-rendering:auto;shape-rendering:auto;text-rendering:auto;enable-background:accumulate;stop-color:#000000;stop-opacity:1" />
      <path
         id="path2925"
         d="m -1518.2695,-756.61328 v 0.58984 22.61914 h 6.2773 v -23.20898 z m 1.1797,1.17969 h 3.9179 v 20.84765 h -3.9179 z"
         style="color:#000000;font-style:normal;font-variant:normal;font-weight:bold;font-stretch:normal;font-size:medium;line-height:1.25;font-family:Montserrat;-inkscape-font-specification:'Montserrat Bold';font-variant-ligatures:normal;font-variant-position:normal;font-variant-caps:normal;font-variant-numeric:normal;font-variant-alternates:normal;font-variant-east-asian:normal;font-feature-settings:normal;font-variation-settings:normal;text-indent:0;text-align:start;text-decoration:none;text-decoration-line:none;text-decoration-style:solid;text-decoration-color:#000000;letter-spacing:normal;word-spacing:normal;text-transform:none;writing-mode:lr-tb;direction:ltr;text-orientation:mixed;dominant-baseline:auto;baseline-shift:baseline;text-anchor:start;white-space:normal;shape-padding:0;shape-margin:0;inline-size:0;clip-rule:nonzero;display:inline;overflow:visible;visibility:visible;isolation:auto;mix-blend-mode:normal;color-interpolation:sRGB;color-interpolation-filters:linearRGB;solid-color:#000000;solid-opacity:1;vector-effect:none;fill:#000000;fill-opacity:1;fill-rule:nonzero;stroke:none;stroke-width:1.18009;stroke-linecap:butt;stroke-linejoin:miter;stroke-miterlimit:4;stroke-dasharray:none;stroke-dashoffset:0;stroke-opacity:1;color-rendering:auto;image-rendering:auto;shape-rendering:auto;text-rendering:auto;enable-background:accumulate;stop-color:#000000;stop-opacity:1" />
    </g>
    <g
       style="font-style:normal;font-variant:normal;font-weight:bold;font-stretch:normal;font-size:31.469px;line-height:1.25;font-family:Montserrat;-inkscape-font-specification:'Montserrat Bold';fill:#000000;fill-opacity:1;stroke-width:1.18009"
       id="g2928"
       transform="matrix(0.32349757,0,0,0.32349551,537.28589,257.69514)">
      <path
         id="path2931"
         d="m -1487.1554,-756.0233 v 22.0283 h -4.1854 l -10.9827,-13.37432 v 13.37432 h -5.035 v -22.0283 h 4.2168 l 10.9512,13.37433 v -13.37433 z"
         style="color:#000000;font-style:normal;font-variant:normal;font-weight:bold;font-stretch:normal;font-size:medium;line-height:1.25;font-family:Montserrat;-inkscape-font-specification:'Montserrat Bold';font-variant-ligatures:normal;font-variant-position:normal;font-variant-caps:normal;font-variant-numeric:normal;font-variant-alternates:normal;font-variant-east-asian:normal;font-feature-settings:normal;font-variation-settings:normal;text-indent:0;text-align:start;text-decoration:none;text-decoration-line:none;text-decoration-style:solid;text-decoration-color:#000000;letter-spacing:normal;word-spacing:normal;text-transform:none;writing-mode:lr-tb;direction:ltr;text-orientation:mixed;dominant-baseline:auto;baseline-shift:baseline;text-anchor:start;white-space:normal;shape-padding:0;shape-margin:0;inline-size:0;clip-rule:nonzero;display:inline;overflow:visible;visibility:visible;isolation:auto;mix-blend-mode:normal;color-interpolation:sRGB;color-interpolation-filters:linearRGB;solid-color:#000000;solid-opacity:1;vector-effect:none;fill:#000000;fill-opacity:1;fill-rule:nonzero;stroke:none;stroke-width:1.18009;stroke-linecap:butt;stroke-linejoin:miter;stroke-miterlimit:4;stroke-dasharray:none;stroke-dashoffset:0;stroke-opacity:1;color-rendering:auto;image-rendering:auto;shape-rendering:auto;text-rendering:auto;enable-background:accumulate;stop-color:#000000;stop-opacity:1" />
      <path
         id="path2933"
         d="m -1507.9492,-756.61328 v 23.20898 h 6.2148 v -12.31836 l 10.1153,12.31836 h 5.0546 v -23.20898 h -0.5917 -5.625 v 12.31055 l -10.0801,-12.31055 z m 1.1816,1.17969 h 3.3457 l 11.8223,14.4375 v -14.4375 h 3.8535 v 20.84765 h -3.3164 l -11.8516,-14.43164 v 14.43164 h -3.8535 z"
         style="color:#000000;font-style:normal;font-variant:normal;font-weight:bold;font-stretch:normal;font-size:medium;line-height:1.25;font-family:Montserrat;-inkscape-font-specification:'Montserrat Bold';font-variant-ligatures:normal;font-variant-position:normal;font-variant-caps:normal;font-variant-numeric:normal;font-variant-alternates:normal;font-variant-east-asian:normal;font-feature-settings:normal;font-variation-settings:normal;text-indent:0;text-align:start;text-decoration:none;text-decoration-line:none;text-decoration-style:solid;text-decoration-color:#000000;letter-spacing:normal;word-spacing:normal;text-transform:none;writing-mode:lr-tb;direction:ltr;text-orientation:mixed;dominant-baseline:auto;baseline-shift:baseline;text-anchor:start;white-space:normal;shape-padding:0;shape-margin:0;inline-size:0;clip-rule:nonzero;display:inline;overflow:visible;visibility:visible;isolation:auto;mix-blend-mode:normal;color-interpolation:sRGB;color-interpolation-filters:linearRGB;solid-color:#000000;solid-opacity:1;vector-effect:none;fill:#000000;fill-opacity:1;fill-rule:nonzero;stroke:none;stroke-width:1.18009;stroke-linecap:butt;stroke-linejoin:miter;stroke-miterlimit:4;stroke-dasharray:none;stroke-dashoffset:0;stroke-opacity:1;color-rendering:auto;image-rendering:auto;shape-rendering:auto;text-rendering:auto;enable-background:accumulate;stop-color:#000000;stop-opacity:1" />
    </g>
  </g>
</svg>
