<?xml version="1.0" encoding="UTF-8" standalone="no"?>
<svg
   xmlns:dc="http://purl.org/dc/elements/1.1/"
   xmlns:cc="http://creativecommons.org/ns#"
   xmlns:rdf="http://www.w3.org/1999/02/22-rdf-syntax-ns#"
   xmlns:svg="http://www.w3.org/2000/svg"
   xmlns="http://www.w3.org/2000/svg"
   xmlns:sodipodi="http://sodipodi.sourceforge.net/DTD/sodipodi-0.dtd"
   xmlns:inkscape="http://www.inkscape.org/namespaces/inkscape"
   sodipodi:docname="rec_logo.svg"
   inkscape:version="1.0 (4035a4fb49, 2020-05-01)"
   id="svg8"
   version="1.1"
   viewBox="0 0 88.681713 23.46669"
   height="88.693001"
   width="335.17499">
  <defs
     id="defs2" />
  <sodipodi:namedview
     inkscape:window-maximized="1"
     inkscape:window-y="27"
     inkscape:window-x="0"
     inkscape:window-height="1016"
     inkscape:window-width="1920"
     units="px"
     showgrid="false"
     inkscape:document-rotation="0"
     inkscape:current-layer="layer1"
     inkscape:document-units="mm"
     inkscape:cy="110.22387"
     inkscape:cx="-226.07162"
     inkscape:zoom="0.98994949"
     inkscape:pageshadow="2"
     inkscape:pageopacity="0"
     borderopacity="1.0"
     bordercolor="#666666"
     pagecolor="#878787"
     id="base" />
  <metadata
     id="metadata5">
    <rdf:RDF>
      <cc:Work
         rdf:about="">
        <dc:format>image/svg+xml</dc:format>
        <dc:type
           rdf:resource="http://purl.org/dc/dcmitype/StillImage" />
        <dc:title></dc:title>
      </cc:Work>
    </rdf:RDF>
  </metadata>
  <g
     id="layer1"
     inkscape:groupmode="layer"
     inkscape:label="Layer 1">
    <g
       transform="translate(93.474989,5.8336664)"
       id="g2503">
      <path
         style="fill:#000000;stroke-width:0.013544"
         d="m -201.40378,20.104972 c -0.25148,-0.03399 -0.50416,-0.113432 -0.67032,-0.21084 -0.29408,-0.172353 -0.48408,-0.412781 -0.57636,-0.72882 -0.0423,-0.145454 -0.0514,-0.47291 -0.0197,-0.666395 0.0468,-0.277131 0.13895,-0.541302 0.25585,-0.725829 0.10875,-0.171674 0.37022,-0.441237 0.55734,-0.573657 0.30542,-0.216141 0.68091,-0.348301 1.11077,-0.390865 0.17189,-0.01707 0.52715,1.35e-4 0.7377,0.0355 0.16237,0.02734 0.38667,0.100142 0.49511,0.160845 0.32352,0.180963 0.55643,0.503542 0.62531,0.866465 0.0272,0.143489 0.0166,0.440134 -0.0227,0.607866 -0.19498,0.847916 -0.76486,1.410109 -1.6128,1.591282 -0.27414,0.0586 -0.60539,0.07144 -0.88043,0.03444 z m 0.73482,-1.186387 c 0.36854,-0.171385 0.47427,-0.732294 0.16917,-0.898304 -0.1299,-0.07084 -0.34905,-0.05845 -0.48227,0.02704 -0.13293,0.08519 -0.23185,0.245292 -0.25903,0.418052 -0.0348,0.21895 0.0589,0.416075 0.22805,0.478544 0.0816,0.03036 0.25133,0.01782 0.34408,-0.02537 z m 36.47063,1.194316 c -0.15483,-0.01889 -0.38486,-0.06631 -0.53136,-0.109656 -0.12234,-0.03625 -0.43938,-0.163849 -0.45948,-0.185132 0,-0.0045 0.0226,-0.06736 0.0619,-0.138203 0.0393,-0.07069 0.10876,-0.198756 0.15647,-0.284425 0.0468,-0.08564 0.11933,-0.218225 0.16131,-0.294578 0.0423,-0.07643 0.0831,-0.138807 0.0906,-0.138807 0.0151,0 0.0755,0.02749 0.1465,0.06102 0.37655,0.174784 0.75884,0.248659 0.90339,0.174633 0.0725,-0.03746 0.12234,-0.138656 0.0997,-0.207665 0,-0.0157 -0.0317,-0.03988 -0.0589,-0.05377 -0.0514,-0.02583 -0.2767,-0.09818 -0.46958,-0.150439 -0.1734,-0.04697 -0.36794,-0.145905 -0.45614,-0.232119 -0.13747,-0.134127 -0.21192,-0.339647 -0.19455,-0.53712 0.0408,-0.474497 0.3936,-0.894876 0.90822,-1.08398 0.49254,-0.180976 1.04641,-0.183212 1.55633,-0.006 0.10722,0.03746 0.30796,0.126272 0.33076,0.146813 0,0.0045 -0.41308,0.831785 -0.42563,0.844671 0,0.003 -0.071,-0.02553 -0.15119,-0.06329 -0.08,-0.03791 -0.1823,-0.08111 -0.22702,-0.09606 -0.19136,-0.06389 -0.4019,-0.07205 -0.50341,-0.01964 -0.0967,0.05015 -0.14048,0.160995 -0.0921,0.231578 0.0362,0.05105 0.14953,0.09772 0.33575,0.138052 0.69466,0.149983 0.91517,0.427552 0.78135,0.983628 -0.0514,0.214221 -0.15785,0.39307 -0.33169,0.558097 -0.23714,0.225036 -0.55509,0.371517 -0.96244,0.443353 -0.14499,0.02567 -0.5279,0.03655 -0.67047,0.01904 z m 12.71558,0.0011 c -0.35917,-0.0657 -0.62471,-0.274246 -0.74841,-0.587233 -0.14198,-0.359616 -0.14652,-0.775931 -0.0151,-1.299334 0.0982,-0.385474 0.29738,-0.749787 0.54736,-0.998913 0.19773,-0.197079 0.3835,-0.308623 0.6451,-0.387363 0.10422,-0.03142 0.145,-0.0364 0.31009,-0.03746 0.21976,-0.0013 0.30208,0.01585 0.47986,0.100594 0.12989,0.06178 0.24484,0.140621 0.38802,0.265517 0.0544,0.04743 0.1012,0.08156 0.10423,0.07582 0,-0.006 0.0151,-0.05604 0.0226,-0.111921 0.0151,-0.05588 0.0227,-0.133522 0.0302,-0.172687 l 0.0151,-0.07114 h 0.70325 c 0.40327,0 0.7034,0.0045 0.7034,0.01209 0,0.01707 -0.0695,0.424849 -0.15589,0.908906 -0.0408,0.227213 -0.11025,0.620329 -0.15451,0.873594 -0.0453,0.253282 -0.1163,0.657061 -0.1589,0.897292 l -0.0785,0.436797 h -0.70174 c -0.65914,0 -0.70158,-0.0015 -0.70145,-0.02371 0,-0.01359 0.0151,-0.09077 0.0257,-0.172685 0.0151,-0.08187 0.0242,-0.149985 0.0242,-0.151313 -0.002,-0.0013 -0.0423,0.02704 -0.0906,0.06313 -0.22656,0.168548 -0.48197,0.299953 -0.68828,0.354162 -0.11633,0.03066 -0.40058,0.04516 -0.50585,0.02583 z m 1.07497,-1.167081 c 0.17247,-0.03655 0.3069,-0.145757 0.39254,-0.318276 0.0499,-0.100744 0.0574,-0.128082 0.0635,-0.229236 0,-0.140618 -0.0151,-0.210838 -0.0771,-0.297854 -0.074,-0.09742 -0.15586,-0.13503 -0.29302,-0.134124 -0.2974,0.0015 -0.53438,0.237769 -0.55869,0.556059 -0.0226,0.30385 0.17973,0.485689 0.4729,0.423475 z m 24.64211,1.145453 c -0.64466,-0.08775 -1.03027,-0.396183 -1.16634,-0.933105 -0.0906,-0.355718 -0.0589,-0.762125 0.0861,-1.138428 0.11934,-0.306314 0.35948,-0.613652 0.63499,-0.810082 0.51625,-0.367984 1.30591,-0.508738 1.9945,-0.355477 0.298,0.06631 0.47669,0.158866 0.65688,0.340086 0.13744,0.13911 0.19439,0.225746 0.2607,0.401936 0.10875,0.291329 0.1178,0.572054 0.0287,1.009471 l -0.0151,0.07129 -1.12963,-0.003 -1.12966,-0.003 -0.015,0.0583 c -0.021,0.142281 0.0272,0.307113 0.1163,0.396077 0.0816,0.08202 0.16932,0.112374 0.303,0.105577 0.12082,-0.006 0.21327,-0.04863 0.32488,-0.148019 l 0.0785,-0.07024 0.55114,0.01676 c 0.30314,0.0091 0.59465,0.0207 0.64781,0.02553 l 0.0967,0.0091 -0.0891,0.135484 c -0.22657,0.345463 -0.64541,0.652983 -1.07647,0.790399 -0.353,0.112527 -0.80369,0.152222 -1.16665,0.102861 z m 1.23476,-1.99704 c 0.0363,-0.173487 0,-0.348892 -0.10725,-0.439758 -0.0816,-0.07356 -0.13744,-0.09319 -0.26944,-0.09274 -0.29636,8.82e-4 -0.47744,0.174436 -0.55916,0.536077 l -0.0213,0.09153 0.46867,-0.003 0.46883,-0.003 z m -90.06076,1.905342 c 0,-0.01058 0.0287,-0.145453 0.0559,-0.301359 0.0272,-0.15589 0.0861,-0.487622 0.1299,-0.737158 0.0438,-0.249549 0.10271,-0.578669 0.12838,-0.731388 0.0272,-0.152702 0.0514,-0.288307 0.0559,-0.301356 0,-0.02174 -0.0151,-0.02371 -0.18352,-0.02371 -0.16027,0 -0.19047,-0.003 -0.19047,-0.02024 0,-0.01058 0.0242,-0.155921 0.0544,-0.321674 0.0302,-0.165753 0.068,-0.383645 0.0846,-0.484207 l 0.0317,-0.182852 0.19229,-0.003 c 0.18637,-0.003 0.19272,-0.0045 0.19921,-0.03384 0,-0.01661 0.0287,-0.161145 0.0559,-0.321295 0.0272,-0.160165 0.0634,-0.349103 0.0816,-0.419865 0.0378,-0.147264 0.12387,-0.336534 0.20891,-0.462157 0.074,-0.11026 0.23865,-0.27435 0.34799,-0.348574 0.30026,-0.203512 0.69012,-0.298624 1.07542,-0.262312 0.16086,0.01526 0.42353,0.07144 0.44815,0.09591 0,0.0075 -0.0166,0.172641 -0.0559,0.38952 -0.0378,0.207682 -0.0816,0.456841 -0.0967,0.553689 -0.0151,0.09682 -0.0332,0.181158 -0.0393,0.187382 0,0.006 -0.0287,0.0015 -0.0498,-0.0091 -0.071,-0.0367 -0.18562,-0.0506 -0.25934,-0.03142 -0.1601,0.04154 -0.22913,0.159333 -0.28638,0.488724 -0.0151,0.08806 -0.0272,0.162264 -0.0272,0.165029 0,0.003 0.1163,0.0045 0.25738,0.0045 0.19682,0 0.25737,0.0045 0.25737,0.01692 1.5e-4,0.01556 -0.15511,0.89992 -0.16992,0.968099 0,0.02976 -0.0151,0.03021 -0.26643,0.03383 l -0.25994,0.003 -0.0649,0.365688 c -0.0363,0.201125 -0.0982,0.554622 -0.13897,0.78555 -0.0408,0.230928 -0.0936,0.529566 -0.1163,0.663661 -0.0226,0.134124 -0.0438,0.25446 -0.0483,0.267494 0,0.0222 -0.0529,0.02371 -0.71201,0.02371 -0.5788,0 -0.70356,-0.003 -0.69795,-0.01798 z m 25.41818,-0.006 c 0,-0.01359 0.0213,-0.142582 0.0468,-0.287809 0.0257,-0.145303 0.068,-0.389023 0.0952,-0.54174 0.11329,-0.640974 0.21584,-1.224616 0.28578,-1.618516 0.0408,-0.230912 0.08,-0.456432 0.0876,-0.501125 0,-0.04471 0.0166,-0.09803 0.0213,-0.118569 v -0.03731 h 0.70296 0.7028 v 0.03731 c -0.021,0.110563 -0.0574,0.335706 -0.0544,0.338757 0,0.0015 0.0408,-0.03927 0.0876,-0.09138 0.11177,-0.125517 0.21629,-0.204301 0.36945,-0.277827 0.18276,-0.08775 0.27022,-0.107694 0.47365,-0.107994 0.0937,-1.51e-4 0.17568,0.0045 0.1808,0.0091 0,0.0045 -0.0151,0.148323 -0.0468,0.318289 -0.0302,0.169938 -0.0786,0.440015 -0.10725,0.600165 l -0.0514,0.291207 -0.0468,-0.003 c -0.27714,-0.01736 -0.44888,-0.01889 -0.51807,-0.0045 -0.23682,0.04924 -0.41808,0.218045 -0.52486,0.488786 -0.0453,0.115547 -0.0801,0.266861 -0.14198,0.62495 -0.0332,0.188619 -0.0816,0.469405 -0.11026,0.623982 l -0.0514,0.281043 h -0.70188 c -0.6596,0 -0.70174,-0.0013 -0.70174,-0.02371 z m 50.50857,-0.121739 c 0.0151,-0.0802 0.0619,-0.349887 0.10574,-0.599439 0.18652,-1.056806 0.24544,-1.389912 0.2918,-1.652378 0.0272,-0.152704 0.0816,-0.463547 0.12084,-0.690742 0.14198,-0.813737 0.30056,-1.706694 0.31206,-1.757339 v -0.03051 h 0.69719 0.69736 v 0.0296 c 0,0.01632 -0.0362,0.23724 -0.0816,0.490974 -0.0876,0.488212 -0.17128,0.964915 -0.31718,1.795431 -0.0997,0.566269 -0.20875,1.185615 -0.33109,1.875844 -0.0453,0.253282 -0.0891,0.509252 -0.0997,0.568854 l -0.0181,0.108296 -0.70491,0.003 -0.70477,0.003 z m -32.90136,-5.605392 c -0.91244,-0.04033 -1.53625,-0.100745 -2.16639,-0.209689 -1.47884,-0.255547 -2.60004,-0.700427 -3.45432,-1.370671 -0.85596,-0.671486 -1.47598,-1.697934 -1.74016,-2.8809669 -0.1027,-0.4602083 -0.14198,-0.7970458 -0.15194,-1.3069974 -0.0151,-0.4884233 0.0182,-0.8787435 0.0922,-1.3273217 0.0317,-0.1896773 1.64785,-9.2764252 1.65812,-9.3216786 v -0.030512 h 3.63045 c 3.45112,0 3.63013,0.00111 3.62346,0.023712 -0.0166,0.055433 -1.4453,8.1114888 -1.46631,8.2652332 -0.0362,0.2629041 -0.0332,0.6886435 0,0.9130778 0.12989,0.7359181 0.53439,1.1508907 1.19731,1.228012 1.10849,0.1289901 2.0874,-0.8605735 2.41305,-2.4390496 0.0197,-0.09304 0.34558,-1.9154645 0.72514,-4.0496641 0.37972,-2.13420194 0.69359,-3.894077 0.69767,-3.9108415 v -0.030512 h 3.61033 3.61036 l -0.0151,0.037308 c 0,0.020546 -0.37383,2.09425083 -0.82136,4.6083648 -0.44753,2.5141032 -0.83194,4.6590738 -0.85428,4.7665843 -0.61626,2.9650267 -2.63688,5.2396357 -5.62509,6.3322837 -1.02135,0.373434 -2.07925,0.590044 -3.34617,0.685154 -0.19107,0.0151 -1.42449,0.02794 -1.6456,0.01813 z m -17.45828,-0.03293 c -1.47025,-0.04667 -3.10013,-0.3641 -4.44908,-0.866677 -0.45751,-0.170405 -1.63698,-0.670049 -1.62673,-0.68902 0.0604,-0.111922 2.38737,-4.2972252 2.4002,-4.3178727 0.0182,-0.028247 0.0211,-0.028849 0.071,-0.01209 0.0287,0.010583 0.1329,0.055734 0.23169,0.1014996 0.47018,0.2176239 1.25182,0.5458842 1.67958,0.7053231 0.69494,0.2591116 1.17314,0.3859853 1.78169,0.4728502 0.46535,0.066459 0.63512,0.082167 0.88435,0.082318 0.36296,1.349e-4 0.61895,-0.047729 0.8425,-0.1573402 0.17446,-0.08549 0.31961,-0.2289794 0.40343,-0.3986291 0.0755,-0.1520972 0.12688,-0.3513522 0.12839,-0.5004139 0,-0.097271 0,-0.126876 -0.0332,-0.190802 -0.0997,-0.2183902 -0.40192,-0.3706089 -1.15062,-0.5810556 -0.13746,-0.038516 -0.40436,-0.1211347 -0.5942,-0.1835312 -0.19001,-0.062531 -0.61354,-0.1847843 -0.94129,-0.2718286 -0.5519,-0.1465115 -0.6161,-0.1667051 -0.86684,-0.2725392 -0.56157,-0.2368945 -0.9884,-0.4626548 -1.2556,-0.6638734 -0.15226,-0.1146391 -0.39181,-0.3489964 -0.5504,-0.538417 -0.63104,-0.7534548 -0.85067,-1.8488989 -0.61081,-3.0473989 0.19636,-0.980546 0.64495,-1.8925807 1.31904,-2.68172673 0.33502,-0.39222422 0.81292,-0.82421771 1.27314,-1.15101258 1.724,-1.22408439 4.07011,-1.82370409 6.6508,-1.69985049 1.71478,0.082317 3.01706,0.4193079 4.70993,1.2188288 0.16193,0.076579 0.29455,0.1439433 0.29455,0.1498345 0,0.01056 -2.17757,4.2924163 -2.1892,4.3051509 0,0.00303 -0.2231,-0.1016518 -0.48924,-0.2329225 -1.09067,-0.5379185 -1.76551,-0.7676219 -2.52253,-0.8585496 -0.25044,-0.030056 -0.86019,-0.033985 -1.02256,-0.00604 -0.37987,0.064041 -0.64208,0.186219 -0.82891,0.3860029 -0.15195,0.1624142 -0.24438,0.3769831 -0.25768,0.5977598 -0.0151,0.1971559 0.0377,0.3282603 0.17612,0.4679572 0.25677,0.2589016 0.79054,0.4506021 1.86535,0.6699908 0.46657,0.095307 0.57322,0.1217396 0.93449,0.2325572 1.99074,0.6102844 2.87449,1.4240057 3.04983,2.8080448 0.0257,0.2080598 0.0227,0.7811121 0,1.0361145 -0.0347,0.2955579 -0.0936,0.6325368 -0.15723,0.8827815 -0.39723,1.5813149 -1.49742,2.9372119 -3.14029,3.8702419 -1.29533,0.735663 -2.83371,1.171885 -4.61252,1.307974 -0.16221,0.01209 -1.03312,0.04335 -1.07133,0.03806 -0.0151,-0.0011 -0.15104,-0.006 -0.3184,-0.01209 z m 33.58255,0.0045 c -0.6333,-0.01359 -1.26813,-0.120833 -1.80631,-0.304137 -1.221,-0.415968 -2.14841,-1.23845 -2.72357,-2.415439 -0.36779,-0.752505 -0.57834,-1.5800465 -0.66685,-2.6207681 -0.0272,-0.3164046 -0.0226,-1.2861372 0,-1.6388332 0.15783,-1.8677798 0.62002,-3.5807128 1.37087,-5.080374 0.5164,-1.0315825 1.13944,-1.90662625 1.88922,-2.6532707 0.93556,-0.9317591 2.01429,-1.5832321 3.17051,-1.9147824 0.55083,-0.1579444 1.06182,-0.2341158 1.66417,-0.2481016 1.79196,-0.041536 3.16945,0.5830661 4.87819,2.21207829 0.10572,0.10013996 0.19288,0.17991998 0.19545,0.1774426 0,-0.004538 0.34392,-1.90111289 0.34392,-1.92197079 0,-0.00604 1.62429,-0.010583 3.60958,-0.010583 3.25449,0 3.60945,0.00153 3.60945,0.020987 0,0.019637 -2.80892,15.8101089 -2.82418,15.8762799 v 0.03051 h -3.60914 c -1.98513,0 -3.60928,-0.003 -3.60928,-0.006 0,-0.003 0.074,-0.41813 0.16326,-0.92223 0.0891,-0.504085 0.16133,-0.92173 0.15921,-0.928075 0,-0.006 -0.0529,0.02522 -0.11176,0.07008 -0.0604,0.04486 -0.24243,0.177611 -0.40631,0.294909 -2.06353,1.476869 -3.51852,2.021571 -5.29567,1.982557 z m 4.56343,-5.902448 c 1.23807,-0.1877002 2.23133,-1.2039063 2.48538,-2.5425724 0.21449,-1.1311667 -0.29725,-2.1381762 -1.24744,-2.4542753 -0.25044,-0.083376 -0.33683,-0.095761 -0.66142,-0.095156 -0.26508,4.6e-4 -0.30708,0.00454 -0.46733,0.037914 -0.90821,0.192502 -1.67006,0.7752335 -2.10521,1.6102531 -0.32565,0.624558 -0.44149,1.3936013 -0.30373,2.0150154 0.0755,0.3408247 0.21612,0.6281665 0.41655,0.8512106 0.31281,0.3478781 0.71761,0.5423884 1.24474,0.5980941 0.14652,0.015409 0.47005,0.00454 0.63846,-0.020393 z m 23.791,5.897872 c -1.47025,-0.04667 -3.10029,-0.3641 -4.44923,-0.866677 -0.45752,-0.170405 -1.63699,-0.67005 -1.62672,-0.68902 0.0604,-0.111922 2.38735,-4.2972248 2.40019,-4.3178722 0.0181,-0.028247 0.021,-0.028849 0.071,-0.01209 0.0287,0.010583 0.1329,0.055734 0.23154,0.1014992 0.4702,0.2176243 1.25199,0.5458823 1.67958,0.7053235 0.69494,0.2591116 1.17313,0.385985 1.78169,0.4728502 0.46535,0.066459 0.63512,0.082167 0.88434,0.082317 0.36312,1.353e-4 0.61912,-0.047728 0.84251,-0.1573399 0.17446,-0.08549 0.31961,-0.2289794 0.40358,-0.3986291 0.0755,-0.1520995 0.12688,-0.3513521 0.12839,-0.5004162 0.002,-0.097271 0,-0.1268737 -0.0332,-0.1907997 -0.0997,-0.2183901 -0.40192,-0.3706093 -1.15062,-0.5810556 -0.13747,-0.038516 -0.40434,-0.121135 -0.59421,-0.1835312 -0.19,-0.062531 -0.61353,-0.1847843 -0.94129,-0.2718286 -0.55174,-0.1465115 -0.6161,-0.166705 -0.86683,-0.2725392 -0.56157,-0.2368945 -0.98841,-0.4626547 -1.25561,-0.6638734 -0.1521,-0.1146414 -0.39178,-0.3489964 -0.55039,-0.5384169 -0.63105,-0.7534572 -0.85065,-1.8489013 -0.61081,-3.0474012 0.19635,-0.980546 0.64495,-1.8925785 1.31906,-2.68172449 0.33499,-0.39222653 0.8129,-0.82422001 1.27312,-1.15101258 1.72399,-1.22408673 4.07011,-1.82370643 6.6508,-1.69985053 1.71478,0.082318 3.01721,0.4193056 4.70992,1.2188288 0.16209,0.076579 0.29455,0.1439429 0.29455,0.1498322 0,0.010583 -2.17757,4.2924186 -2.18919,4.305151 0,0.00303 -0.22311,-0.1016499 -0.48922,-0.2329203 -1.09069,-0.5379185 -1.76553,-0.7676242 -2.5224,-0.8585496 -0.25044,-0.03006 -0.86035,-0.033985 -1.02272,-0.00604 -0.37985,0.064041 -0.64207,0.186219 -0.82891,0.3860006 -0.15194,0.1624143 -0.24437,0.3769854 -0.25768,0.5977622 -0.0151,0.1971536 0.0378,0.3282584 0.17628,0.4679572 0.25662,0.2588992 0.7904,0.450602 1.8652,0.6699884 0.46657,0.095309 0.57321,0.1217396 0.93464,0.2325596 1.99058,0.6102843 2.87433,1.4240056 3.0497,2.8080448 0.0257,0.2080597 0.0226,0.7811097 0,1.0361144 -0.0348,0.2955579 -0.0936,0.6325345 -0.1571,0.8827815 -0.39739,1.5813131 -1.49758,2.9372131 -3.14045,3.8702421 -1.29533,0.735661 -2.8337,1.171886 -4.61251,1.307974 -0.16222,0.01209 -1.03313,0.04335 -1.07134,0.03806 0,-0.0011 -0.15104,-0.006 -0.31824,-0.01209 z m -88.93701,-0.503937 c -0.0151,-0.02553 -3.94808,-15.8913548 -3.94808,-15.9018225 0,-0.00454 1.69741,-0.00905 3.77211,-0.00905 3.57365,0 3.77196,0.00134 3.77196,0.023563 0,0.013593 0.18292,1.72850362 0.40631,3.8123464 0.22354,2.0838431 0.4063,3.7919891 0.4063,3.7958702 0,0.00454 0.0166,0.00755 0.0378,0.00755 0.0378,0 0.068,-0.066005 1.806,-3.8160198 l 1.7681,-3.8160327 3.78887,-0.00303 c 2.29117,-0.00153 3.78692,0.00153 3.7842,0.00905 0,0.00755 -2.16789,3.5905891 -4.81203,7.9639213 l -4.8075,7.9515081 h -2.98412 c -2.37514,0 -2.98533,-0.003 -2.99018,-0.01692 z m 12.95498,-0.0011 c 0,-0.01798 2.79095,-15.7029278 2.81829,-15.8385934 l 0.0151,-0.071141 h 3.58995 3.5901 l -0.0151,0.057548 c -0.0151,0.066306 -2.80906,15.7936724 -2.8198,15.8397564 v 0.03051 h -3.58888 c -2.98399,0 -3.58891,-0.003 -3.58891,-0.01813 z m 61.88214,-0.188455 c 0.0197,-0.113583 1.0141,-5.6964585 2.20914,-12.4063273 l 2.17287,-12.1997707 3.59254,-1.6e-5 c 1.97592,0 3.59252,0.0015 3.59252,0.0045 0,0.003 -0.99341,5.5828707 -2.20762,12.4007768 -1.21422,6.8178928 -2.20779,12.3986692 -2.20779,12.4017362 0,0.003 -1.61719,0.006 -3.59402,0.006 h -3.59404 z m -55.58055,-17.1849882 c -1.27932,-0.081563 -2.32573,-0.76853 -2.8,-1.838447 -0.2678,-0.6039834 -0.34345,-1.290136 -0.22248,-2.0193326 0.21462,-1.2948339 0.93011,-2.4579743 1.95311,-3.1751332 0.80445,-0.563853 1.7234,-0.848718 2.73793,-0.848718 1.81009,0 3.08653,0.753787 3.52304,2.0804291 0.11479,0.3498422 0.16027,0.6552345 0.15967,1.0821073 -0.002,1.041264 -0.34695,2.0139569 -1.01017,2.8426913 -0.14501,0.1812041 -0.54875,0.5827027 -0.73528,0.7313282 -0.8715,0.6942314 -1.92533,1.0846732 -3.09317,1.1461019 -0.274,0.015099 -0.27037,0.015099 -0.51265,-0.00111 z"
         id="path934" />
      <path
         id="path936"
         d="m -201.40378,20.104972 c -0.25148,-0.03399 -0.50416,-0.113432 -0.67032,-0.21084 -0.29408,-0.172353 -0.48408,-0.412781 -0.57636,-0.72882 -0.0423,-0.145454 -0.0514,-0.47291 -0.0197,-0.666395 0.0468,-0.277131 0.13895,-0.541302 0.25585,-0.725829 0.10875,-0.171674 0.37022,-0.441237 0.55734,-0.573657 0.30542,-0.216141 0.68091,-0.348301 1.11077,-0.390865 0.17189,-0.01707 0.52715,1.35e-4 0.7377,0.0355 0.16237,0.02734 0.38667,0.100142 0.49511,0.160845 0.32352,0.180963 0.55643,0.503542 0.62531,0.866465 0.0272,0.143489 0.0166,0.440134 -0.0227,0.607866 -0.19498,0.847916 -0.76486,1.410109 -1.6128,1.591282 -0.27414,0.0586 -0.60539,0.07144 -0.88043,0.03444 z m 0.73482,-1.186387 c 0.36854,-0.171385 0.47427,-0.732294 0.16917,-0.898304 -0.1299,-0.07084 -0.34905,-0.05845 -0.48227,0.02704 -0.13293,0.08519 -0.23185,0.245292 -0.25903,0.418052 -0.0348,0.21895 0.0589,0.416075 0.22805,0.478544 0.0816,0.03036 0.25133,0.01782 0.34408,-0.02537 z m 36.47063,1.194316 c -0.15483,-0.01889 -0.38486,-0.06631 -0.53136,-0.109656 -0.12234,-0.03625 -0.43938,-0.163849 -0.45948,-0.185132 0,-0.0045 0.0226,-0.06736 0.0619,-0.138203 0.0393,-0.07069 0.10876,-0.198756 0.15647,-0.284425 0.0468,-0.08564 0.11933,-0.218225 0.16131,-0.294578 0.0423,-0.07643 0.0831,-0.138807 0.0906,-0.138807 0.0151,0 0.0755,0.02749 0.1465,0.06102 0.37655,0.174784 0.75884,0.248659 0.90339,0.174633 0.0725,-0.03746 0.12234,-0.138656 0.0997,-0.207665 0,-0.0157 -0.0317,-0.03988 -0.0589,-0.05377 -0.0514,-0.02583 -0.2767,-0.09818 -0.46958,-0.150439 -0.1734,-0.04697 -0.36794,-0.145905 -0.45614,-0.232119 -0.13747,-0.134127 -0.21192,-0.339647 -0.19455,-0.53712 0.0408,-0.474497 0.3936,-0.894876 0.90822,-1.08398 0.49254,-0.180976 1.04641,-0.183212 1.55633,-0.006 0.10722,0.03746 0.30796,0.126272 0.33076,0.146813 0,0.0045 -0.41308,0.831785 -0.42563,0.844671 0,0.003 -0.071,-0.02553 -0.15119,-0.06329 -0.08,-0.03791 -0.1823,-0.08111 -0.22702,-0.09606 -0.19136,-0.06389 -0.4019,-0.07205 -0.50341,-0.01964 -0.0967,0.05015 -0.14048,0.160995 -0.0921,0.231578 0.0362,0.05105 0.14953,0.09772 0.33575,0.138052 0.69466,0.149983 0.91517,0.427552 0.78135,0.983628 -0.0514,0.214221 -0.15785,0.39307 -0.33169,0.558097 -0.23714,0.225036 -0.55509,0.371517 -0.96244,0.443353 -0.14499,0.02567 -0.5279,0.03655 -0.67047,0.01904 z m 12.71558,0.0011 c -0.35917,-0.0657 -0.62471,-0.274246 -0.74841,-0.587233 -0.14198,-0.359616 -0.14652,-0.775931 -0.0151,-1.299334 0.0982,-0.385474 0.29738,-0.749787 0.54736,-0.998913 0.19773,-0.197079 0.3835,-0.308623 0.6451,-0.387363 0.10422,-0.03142 0.145,-0.0364 0.31009,-0.03746 0.21976,-0.0013 0.30208,0.01585 0.47986,0.100594 0.12989,0.06178 0.24484,0.140621 0.38802,0.265517 0.0544,0.04743 0.1012,0.08156 0.10423,0.07582 0,-0.006 0.0151,-0.05604 0.0226,-0.111921 0.0151,-0.05588 0.0227,-0.133522 0.0302,-0.172687 l 0.0151,-0.07114 h 0.70325 c 0.40327,0 0.7034,0.0045 0.7034,0.01209 0,0.01707 -0.0695,0.424849 -0.15589,0.908906 -0.0408,0.227213 -0.11025,0.620329 -0.15451,0.873594 -0.0453,0.253282 -0.1163,0.657061 -0.1589,0.897292 l -0.0785,0.436797 h -0.70174 c -0.65914,0 -0.70158,-0.0015 -0.70145,-0.02371 0,-0.01359 0.0151,-0.09077 0.0257,-0.172685 0.0151,-0.08187 0.0242,-0.149985 0.0242,-0.151313 -0.002,-0.0013 -0.0423,0.02704 -0.0906,0.06313 -0.22656,0.168548 -0.48197,0.299953 -0.68828,0.354162 -0.11633,0.03066 -0.40058,0.04516 -0.50585,0.02583 z m 1.07497,-1.167081 c 0.17247,-0.03655 0.3069,-0.145757 0.39254,-0.318276 0.0499,-0.100744 0.0574,-0.128082 0.0635,-0.229236 0,-0.140618 -0.0151,-0.210838 -0.0771,-0.297854 -0.074,-0.09742 -0.15586,-0.13503 -0.29302,-0.134124 -0.2974,0.0015 -0.53438,0.237769 -0.55869,0.556059 -0.0226,0.30385 0.17973,0.485689 0.4729,0.423475 z m 24.64211,1.145453 c -0.64466,-0.08775 -1.03027,-0.396183 -1.16634,-0.933105 -0.0906,-0.355718 -0.0589,-0.762125 0.0861,-1.138428 0.11934,-0.306314 0.35948,-0.613652 0.63499,-0.810082 0.51625,-0.367984 1.30591,-0.508738 1.9945,-0.355477 0.298,0.06631 0.47669,0.158866 0.65688,0.340086 0.13744,0.13911 0.19439,0.225746 0.2607,0.401936 0.10875,0.291329 0.1178,0.572054 0.0287,1.009471 l -0.0151,0.07129 -1.12963,-0.003 -1.12966,-0.003 -0.015,0.0583 c -0.021,0.142281 0.0272,0.307113 0.1163,0.396077 0.0816,0.08202 0.16932,0.112374 0.303,0.105577 0.12082,-0.006 0.21327,-0.04863 0.32488,-0.148019 l 0.0785,-0.07024 0.55114,0.01676 c 0.30314,0.0091 0.59465,0.0207 0.64781,0.02553 l 0.0967,0.0091 -0.0891,0.135484 c -0.22657,0.345463 -0.64541,0.652983 -1.07647,0.790399 -0.353,0.112527 -0.80369,0.152222 -1.16665,0.102861 z m 1.23476,-1.99704 c 0.0363,-0.173487 0,-0.348892 -0.10725,-0.439758 -0.0816,-0.07356 -0.13744,-0.09319 -0.26944,-0.09274 -0.29636,8.82e-4 -0.47744,0.174436 -0.55916,0.536077 l -0.0213,0.09153 0.46867,-0.003 0.46883,-0.003 z m -90.06076,1.905342 c 0,-0.01058 0.0287,-0.145453 0.0559,-0.301359 0.0272,-0.15589 0.0861,-0.487622 0.1299,-0.737158 0.0438,-0.249549 0.10271,-0.578669 0.12838,-0.731388 0.0272,-0.152702 0.0514,-0.288307 0.0559,-0.301356 0,-0.02174 -0.0151,-0.02371 -0.18352,-0.02371 -0.16027,0 -0.19047,-0.003 -0.19047,-0.02024 0,-0.01058 0.0242,-0.155921 0.0544,-0.321674 0.0302,-0.165753 0.068,-0.383645 0.0846,-0.484207 l 0.0317,-0.182852 0.19229,-0.003 c 0.18637,-0.003 0.19272,-0.0045 0.19921,-0.03384 0,-0.01661 0.0287,-0.161145 0.0559,-0.321295 0.0272,-0.160165 0.0634,-0.349103 0.0816,-0.419865 0.0378,-0.147264 0.12387,-0.336534 0.20891,-0.462157 0.074,-0.11026 0.23865,-0.27435 0.34799,-0.348574 0.30026,-0.203512 0.69012,-0.298624 1.07542,-0.262312 0.16086,0.01526 0.42353,0.07144 0.44815,0.09591 0,0.0075 -0.0166,0.172641 -0.0559,0.38952 -0.0378,0.207682 -0.0816,0.456841 -0.0967,0.553689 -0.0151,0.09682 -0.0332,0.181158 -0.0393,0.187382 0,0.006 -0.0287,0.0015 -0.0498,-0.0091 -0.071,-0.0367 -0.18562,-0.0506 -0.25934,-0.03142 -0.1601,0.04154 -0.22913,0.159333 -0.28638,0.488724 -0.0151,0.08806 -0.0272,0.162264 -0.0272,0.165029 0,0.003 0.1163,0.0045 0.25738,0.0045 0.19682,0 0.25737,0.0045 0.25737,0.01692 1.5e-4,0.01556 -0.15511,0.89992 -0.16992,0.968099 0,0.02976 -0.0151,0.03021 -0.26643,0.03383 l -0.25994,0.003 -0.0649,0.365688 c -0.0363,0.201125 -0.0982,0.554622 -0.13897,0.78555 -0.0408,0.230928 -0.0936,0.529566 -0.1163,0.663661 -0.0226,0.134124 -0.0438,0.25446 -0.0483,0.267494 0,0.0222 -0.0529,0.02371 -0.71201,0.02371 -0.5788,0 -0.70356,-0.003 -0.69795,-0.01798 z m 25.41818,-0.006 c 0,-0.01359 0.0213,-0.142582 0.0468,-0.287809 0.0257,-0.145303 0.068,-0.389023 0.0952,-0.54174 0.11329,-0.640974 0.21584,-1.224616 0.28578,-1.618516 0.0408,-0.230912 0.08,-0.456432 0.0876,-0.501125 0,-0.04471 0.0166,-0.09803 0.0213,-0.118569 v -0.03731 h 0.70296 0.7028 v 0.03731 c -0.021,0.110563 -0.0574,0.335706 -0.0544,0.338757 0,0.0015 0.0408,-0.03927 0.0876,-0.09138 0.11177,-0.125517 0.21629,-0.204301 0.36945,-0.277827 0.18276,-0.08775 0.27022,-0.107694 0.47365,-0.107994 0.0937,-1.51e-4 0.17568,0.0045 0.1808,0.0091 0,0.0045 -0.0151,0.148323 -0.0468,0.318289 -0.0302,0.169938 -0.0786,0.440015 -0.10725,0.600165 l -0.0514,0.291207 -0.0468,-0.003 c -0.27714,-0.01736 -0.44888,-0.01889 -0.51807,-0.0045 -0.23682,0.04924 -0.41808,0.218045 -0.52486,0.488786 -0.0453,0.115547 -0.0801,0.266861 -0.14198,0.62495 -0.0332,0.188619 -0.0816,0.469405 -0.11026,0.623982 l -0.0514,0.281043 h -0.70188 c -0.6596,0 -0.70174,-0.0013 -0.70174,-0.02371 z m 50.50857,-0.121739 c 0.0151,-0.0802 0.0619,-0.349887 0.10574,-0.599439 0.18652,-1.056806 0.24544,-1.389912 0.2918,-1.652378 0.0272,-0.152704 0.0816,-0.463547 0.12084,-0.690742 0.14198,-0.813737 0.30056,-1.706694 0.31206,-1.757339 v -0.03051 h 0.69719 0.69736 v 0.0296 c 0,0.01632 -0.0362,0.23724 -0.0816,0.490974 -0.0876,0.488212 -0.17128,0.964915 -0.31718,1.795431 -0.0997,0.566269 -0.20875,1.185615 -0.33109,1.875844 -0.0453,0.253282 -0.0891,0.509252 -0.0997,0.568854 l -0.0181,0.108296 -0.70491,0.003 -0.70477,0.003 z"
         style="fill:#cd1719;fill-opacity:1;stroke-width:0.013544"
         sodipodi:nodetypes="ccccsscccccccccccccccccccccsccccscccccccccccccccccccccccsccccssccccscccccccccccccccccccccccccccccccccccscccccccccccscccsssccccccccccccccccsscccccsscscccccccccccccccsccccccccccsccccccccccscccccccc" />
    </g>
    <g
       transform="translate(323.52741,-170.57985)"
       id="g900">
      <path
         style="fill:#000000;stroke-width:0.0846667"
         d="m -313.70644,193.93244 c -2.83498,-0.48555 -5.31265,-1.90671 -7.10715,-4.07656 -1.82911,-2.2117 -2.7148,-4.68987 -2.71385,-7.59328 8.5e-4,-1.85939 0.36428,-3.42673 1.18556,-5.10959 1.36461,-2.7962 3.82962,-4.97391 6.74591,-5.95968 2.96707,-1.00293 6.40532,-0.7653 9.15472,0.63275 1.37458,0.69895 3.10089,2.15116 4.03228,3.39206 2.50045,3.33135 3.06911,7.73885 1.49553,11.59146 -1.53154,3.74965 -4.9737,6.46753 -9.02281,7.12428 -0.92619,0.15022 -2.88907,0.14947 -3.77019,-10e-4 z m 68.66466,-1.52155 c -0.0699,-0.0167 -0.41275,-0.0763 -0.762,-0.13252 -4.0309,-0.64825 -7.09257,-3.67916 -7.93372,-7.85405 -0.20351,-1.01006 -0.20187,-3.24178 0.003,-4.27437 0.82893,-4.17519 3.79436,-7.08181 7.96284,-7.80495 0.96094,-0.1667 2.90331,-0.16859 3.91927,-0.004 3.00542,0.48744 5.5126,2.22474 6.74817,4.67604 l 0.22296,0.44233 -0.19083,0.1202 c -0.10496,0.0661 -1.00998,0.58631 -2.01116,1.156 -1.00118,0.56968 -1.84644,1.05069 -1.87836,1.06891 -0.0319,0.0182 -0.19862,-0.2344 -0.37044,-0.56136 -0.79261,-1.50836 -2.42669,-2.40027 -4.39753,-2.40027 -2.42098,0 -4.19144,1.2499 -4.92031,3.47364 -0.22538,0.68763 -0.24436,0.84422 -0.24436,2.01555 0,1.10508 0.0257,1.34696 0.1977,1.86266 0.6198,1.85806 1.87288,3.04619 3.65592,3.46643 0.70427,0.16599 2.08653,0.16603 2.79271,0 1.32907,-0.31231 2.48814,-1.17509 3.05727,-2.27574 0.15789,-0.30534 0.30612,-0.55436 0.3294,-0.55339 0.0233,9.3e-4 0.93768,0.51138 2.032,1.13425 1.59576,0.90829 1.98846,1.16657 1.98355,1.30459 -0.0103,0.28944 -0.80783,1.51681 -1.41097,2.17138 -0.95788,1.03954 -2.1588,1.83177 -3.54704,2.33992 -1.26354,0.4625 -2.00623,0.59067 -3.62954,0.62632 -0.81492,0.0179 -1.53882,0.0189 -1.60867,0.002 z m -47.752,-10.07866 v -9.779 l 5.6515,8.4e-4 c 3.5498,0 5.85616,0.0338 6.20184,0.0898 2.63073,0.42624 4.63557,2.18782 5.34673,4.69801 0.2715,0.9583 0.2715,2.58812 0,3.54642 -0.44572,1.57328 -1.49604,2.99129 -2.76758,3.73646 -0.2078,0.12178 -0.37782,0.25241 -0.37782,0.29029 0,0.0379 1.00965,1.54736 2.24367,3.35439 1.81343,2.6555 2.24366,3.33887 2.24366,3.56375 v 0.27823 h -2.53988 -2.53989 l -2.13794,-3.21496 -2.13795,-3.21496 -2.13784,-0.002 -2.13783,-0.002 v 3.21734 3.21733 h -2.45534 -2.45533 v -9.779 z m 10.99663,-1.10553 c 0.30883,-0.0917 0.56877,-0.25283 0.85375,-0.52917 0.83234,-0.80709 0.89641,-2.0099 0.1521,-2.85547 -0.71694,-0.81449 -1.17165,-0.90212 -4.50948,-0.86902 l -2.54,0.0252 -0.0226,2.18016 -0.0226,2.18017 h 2.8224 c 2.30853,0 2.90324,-0.024 3.26642,-0.13186 z m 10.17004,1.10553 v -9.779 h 7.874 7.874 v 2.286 2.286 h -5.461 -5.461 v 1.43933 1.43933 h 3.47133 3.47134 v 2.28506 2.28505 l -3.45017,0.0221 -3.45017,0.0221 v 1.43933 1.43933 l 5.56684,0.0218 5.56683,0.0218 v 2.28539 2.28539 h -8.001 -8.001 z"
         id="path847"
         sodipodi:nodetypes="cscssssssccccscscscssssssscscssssssscccccssssssscccccccccccccsssscccsssccccccccccccccccccccccccc" />
      <path
         style="fill:#cd1719;fill-opacity:1;stroke-width:0.0846667"
         d="m -313.70644,193.93288 c -2.83498,-0.48555 -5.31265,-1.90671 -7.10715,-4.07656 -1.82911,-2.2117 -2.7148,-4.68987 -2.71385,-7.59328 8.5e-4,-1.85939 0.36428,-3.42673 1.18556,-5.10959 1.36461,-2.7962 3.82962,-4.97391 6.74591,-5.95968 2.96707,-1.00293 6.40532,-0.7653 9.15472,0.63275 1.37458,0.69895 3.10089,2.15116 4.03228,3.39206 2.50045,3.33135 3.06911,7.73885 1.49553,11.59146 -1.53154,3.74965 -4.9737,6.46753 -9.02281,7.12428 -0.92619,0.15022 -2.88907,0.14947 -3.77019,-0.001 z"
         id="path847-3" />
    </g>
  </g>
</svg>
